<svg width="40" height="44" viewBox="0 0 40 44" fill="none" xmlns="http://www.w3.org/2000/svg">
<path d="M20 36C20.3956 36 20.7822 35.8827 21.1111 35.6629C21.44 35.4432 21.6964 35.1308 21.8478 34.7654C21.9991 34.3999 22.0387 33.9978 21.9616 33.6098C21.8844 33.2219 21.6939 32.8655 21.4142 32.5858C21.1345 32.3061 20.7781 32.1156 20.3902 32.0384C20.0022 31.9613 19.6001 32.0009 19.2346 32.1522C18.8692 32.3036 18.5568 32.56 18.3371 32.8889C18.1173 33.2178 18 33.6044 18 34C18 34.5304 18.2107 35.0391 18.5858 35.4142C18.9609 35.7893 19.4696 36 20 36ZM30 36C30.3956 36 30.7822 35.8827 31.1111 35.6629C31.44 35.4432 31.6964 35.1308 31.8478 34.7654C31.9991 34.3999 32.0387 33.9978 31.9616 33.6098C31.8844 33.2219 31.6939 32.8655 31.4142 32.5858C31.1345 32.3061 30.7781 32.1156 30.3902 32.0384C30.0022 31.9613 29.6001 32.0009 29.2346 32.1522C28.8692 32.3036 28.5568 32.56 28.3371 32.8889C28.1173 33.2178 28 33.6044 28 34C28 34.5304 28.2107 35.0391 28.5858 35.4142C28.9609 35.7893 29.4696 36 30 36ZM30 28C30.3956 28 30.7822 27.8827 31.1111 27.6629C31.44 27.4432 31.6964 27.1308 31.8478 26.7654C31.9991 26.3999 32.0387 25.9978 31.9616 25.6098C31.8844 25.2219 31.6939 24.8655 31.4142 24.5858C31.1345 24.3061 30.7781 24.1156 30.3902 24.0384C30.0022 23.9613 29.6001 24.0009 29.2346 24.1522C28.8692 24.3036 28.5568 24.56 28.3371 24.8889C28.1173 25.2178 28 25.6044 28 26C28 26.5304 28.2107 27.0391 28.5858 27.4142C28.9609 27.7893 29.4696 28 30 28ZM20 28C20.3956 28 20.7822 27.8827 21.1111 27.6629C21.44 27.4432 21.6964 27.1308 21.8478 26.7654C21.9991 26.3999 22.0387 25.9978 21.9616 25.6098C21.8844 25.2219 21.6939 24.8655 21.4142 24.5858C21.1345 24.3061 20.7781 24.1156 20.3902 24.0384C20.0022 23.9613 19.6001 24.0009 19.2346 24.1522C18.8692 24.3036 18.5568 24.56 18.3371 24.8889C18.1173 25.2178 18 25.6044 18 26C18 26.5304 18.2107 27.0391 18.5858 27.4142C18.9609 27.7893 19.4696 28 20 28ZM34 4H32V2C32 1.46957 31.7893 0.960859 31.4142 0.585786C31.0391 0.210714 30.5304 0 30 0C29.4696 0 28.9609 0.210714 28.5858 0.585786C28.2107 0.960859 28 1.46957 28 2V4H12V2C12 1.46957 11.7893 0.960859 11.4142 0.585786C11.0391 0.210714 10.5304 0 10 0C9.46957 0 8.96086 0.210714 8.58579 0.585786C8.21071 0.960859 8 1.46957 8 2V4H6C4.4087 4 2.88258 4.63214 1.75736 5.75736C0.632141 6.88258 0 8.4087 0 10V38C0 39.5913 0.632141 41.1174 1.75736 42.2426C2.88258 43.3679 4.4087 44 6 44H34C35.5913 44 37.1174 43.3679 38.2426 42.2426C39.3679 41.1174 40 39.5913 40 38V10C40 8.4087 39.3679 6.88258 38.2426 5.75736C37.1174 4.63214 35.5913 4 34 4ZM36 38C36 38.5304 35.7893 39.0391 35.4142 39.4142C35.0391 39.7893 34.5304 40 34 40H6C5.46957 40 4.96086 39.7893 4.58579 39.4142C4.21071 39.0391 4 38.5304 4 38V20H36V38ZM36 16H4V10C4 9.46957 4.21071 8.96086 4.58579 8.58579C4.96086 8.21072 5.46957 8 6 8H8V10C8 10.5304 8.21071 11.0391 8.58579 11.4142C8.96086 11.7893 9.46957 12 10 12C10.5304 12 11.0391 11.7893 11.4142 11.4142C11.7893 11.0391 12 10.5304 12 10V8H28V10C28 10.5304 28.2107 11.0391 28.5858 11.4142C28.9609 11.7893 29.4696 12 30 12C30.5304 12 31.0391 11.7893 31.4142 11.4142C31.7893 11.0391 32 10.5304 32 10V8H34C34.5304 8 35.0391 8.21072 35.4142 8.58579C35.7893 8.96086 36 9.46957 36 10V16ZM10 28C10.3956 28 10.7822 27.8827 11.1111 27.6629C11.44 27.4432 11.6964 27.1308 11.8478 26.7654C11.9991 26.3999 12.0387 25.9978 11.9616 25.6098C11.8844 25.2219 11.6939 24.8655 11.4142 24.5858C11.1345 24.3061 10.7781 24.1156 10.3902 24.0384C10.0022 23.9613 9.60009 24.0009 9.23463 24.1522C8.86918 24.3036 8.55682 24.56 8.33706 24.8889C8.1173 25.2178 8 25.6044 8 26C8 26.5304 8.21071 27.0391 8.58579 27.4142C8.96086 27.7893 9.46957 28 10 28ZM10 36C10.3956 36 10.7822 35.8827 11.1111 35.6629C11.44 35.4432 11.6964 35.1308 11.8478 34.7654C11.9991 34.3999 12.0387 33.9978 11.9616 33.6098C11.8844 33.2219 11.6939 32.8655 11.4142 32.5858C11.1345 32.3061 10.7781 32.1156 10.3902 32.0384C10.0022 31.9613 9.60009 32.0009 9.23463 32.1522C8.86918 32.3036 8.55682 32.56 8.33706 32.8889C8.1173 33.2178 8 33.6044 8 34C8 34.5304 8.21071 35.0391 8.58579 35.4142C8.96086 35.7893 9.46957 36 10 36Z" fill="black"/>
</svg>
