<svg width="30" height="30" viewBox="0 0 30 30" fill="none" xmlns="http://www.w3.org/2000/svg">
<path fill-rule="evenodd" clip-rule="evenodd" d="M8.00123 2.50001H12.9646C15.1183 2.50001 16.8643 4.37924 16.8643 6.69738C16.8643 6.76717 16.8901 6.83411 16.9359 6.88346C16.9818 6.93281 17.044 6.96054 17.1088 6.96054H21.9988C25.0342 6.96777 27.4933 9.61448 27.5 12.8816V21.579C27.4933 24.8461 25.0342 27.4928 21.9988 27.5H8.00123C4.96299 27.5 2.50001 24.8491 2.50001 21.579V8.42106C2.49676 6.84963 3.0753 5.34155 4.10769 4.23038C5.14007 3.11921 6.54122 2.49651 8.00123 2.50001ZM14.9939 6.69738C14.9939 5.46927 14.0689 4.4737 12.9279 4.4737H8.00123C5.97574 4.4737 4.33375 6.24099 4.33375 8.42106V21.579C4.33375 23.759 5.97574 25.5263 8.00123 25.5263H21.9621C23.9876 25.5263 25.6296 23.759 25.6296 21.579V12.8816C25.6296 10.7015 23.9876 8.93422 21.9621 8.93422H17.0721C15.9244 8.93422 14.9939 7.93275 14.9939 6.69738Z" fill="black"/>
</svg>
