<svg width="40" height="38" viewBox="0 0 40 38" fill="currentValue" xmlns="http://www.w3.org/2000/svg">
<path d="M34 6.00004H21.44L20.8 4.00004C20.3851 2.82651 19.6155 1.81105 18.5978 1.09437C17.5801 0.377681 16.3647 -0.0047538 15.12 4.46072e-05H6C4.4087 4.46072e-05 2.88258 0.632186 1.75736 1.7574C0.632141 2.88262 0 4.40875 0 6.00004V32C0 33.5913 0.632141 35.1175 1.75736 36.2427C2.88258 37.3679 4.4087 38 6 38H34C35.5913 38 37.1174 37.3679 38.2426 36.2427C39.3679 35.1175 40 33.5913 40 32V12C40 10.4087 39.3679 8.88262 38.2426 7.7574C37.1174 6.63219 35.5913 6.00004 34 6.00004ZM36 32C36 32.5305 35.7893 33.0392 35.4142 33.4143C35.0391 33.7893 34.5304 34 34 34H6C5.46957 34 4.96086 33.7893 4.58579 33.4143C4.21071 33.0392 4 32.5305 4 32V6.00004C4 5.46961 4.21071 4.9609 4.58579 4.58583C4.96086 4.21076 5.46957 4.00004 6 4.00004H15.12C15.5393 3.99896 15.9483 4.12968 16.2893 4.37373C16.6302 4.61777 16.8858 4.9628 17.02 5.36004L18.1 8.64005C18.2342 9.03729 18.4898 9.38231 18.8307 9.62636C19.1717 9.87041 19.5807 10.0011 20 10H34C34.5304 10 35.0391 10.2108 35.4142 10.5858C35.7893 10.9609 36 11.4696 36 12V32Z" fill="black"/>
</svg>
