<svg width="30" height="30" viewBox="0 0 30 30" fill="none" xmlns="http://www.w3.org/2000/svg">
<path fill-rule="evenodd" clip-rule="evenodd" d="M25.3625 8.7506L18.4125 3.6131C16.3795 2.12897 13.6205 2.12897 11.5875 3.6131L4.65 8.7506C3.3068 9.71827 2.50763 11.2702 2.5 12.9256V22.2131C2.57503 25.2047 5.05831 27.5705 8.05 27.5006H21.95C24.9417 27.5705 27.425 25.2047 27.5 22.2131V12.9131C27.4893 11.2648 26.6959 9.71971 25.3625 8.7506ZM25.625 22.2131C25.5504 24.1693 23.9064 25.696 21.95 25.6256H8.05C6.09622 25.689 4.45628 24.1662 4.375 22.2131V12.9256C4.38167 11.863 4.89771 10.8681 5.7625 10.2506L12.7 5.1256C14.0701 4.12507 15.9299 4.12507 17.3 5.1256L24.2375 10.2631C25.1016 10.8699 25.6186 11.8573 25.625 12.9131V22.2131ZM9.375 19.6881H20.625C21.1428 19.6881 21.5625 20.1078 21.5625 20.6256C21.5625 21.1434 21.1428 21.5631 20.625 21.5631H9.375C8.85723 21.5631 8.4375 21.1434 8.4375 20.6256C8.4375 20.1078 8.85723 19.6881 9.375 19.6881Z" fill="black"/>
</svg>
