<svg width="28" height="32" viewBox="0 0 28 32" fill="none" xmlns="http://www.w3.org/2000/svg">
<path d="M25.9875 21.2072V21.2625L25.9906 21.3178C26.0031 21.5443 26.0031 21.7712 25.9906 21.9977L25.9878 22.049L25.9875 22.1003C25.9839 23.0064 25.6889 23.885 25.1496 24.6041C24.6105 25.323 23.8572 25.8429 23.0048 26.0897C22.1526 26.3363 21.2444 26.2975 20.4155 25.9787C19.5863 25.6597 18.8786 25.0766 18.4013 24.3134C17.9238 23.5499 17.7037 22.6487 17.7762 21.7456C17.8487 20.8426 18.2096 19.9901 18.8014 19.3155C19.393 18.6412 20.1829 18.1814 21.0511 18.0015C21.9191 17.8217 22.8218 17.9305 23.6247 18.3129L25.9875 19.4383V21.2072ZM7.86195 21.8467L10.2248 22.972V24.741V24.8001L10.2283 24.8592C10.2417 25.0864 10.2417 25.3143 10.2283 25.5415L10.2252 25.5938L10.2248 25.6461C10.2186 26.5517 9.92147 27.4289 9.38069 28.1462C8.84013 28.8633 8.08607 29.3812 7.23369 29.6259C6.38151 29.8706 5.47391 29.83 4.64598 29.5099C3.81781 29.1896 3.11144 28.6057 2.63547 27.8422C2.15933 27.0785 1.94047 26.1775 2.01391 25.275C2.08734 24.3726 2.44873 23.5209 3.04068 22.8472C3.63238 22.1737 4.42207 21.7146 5.28978 21.5351C6.15733 21.3556 7.05954 21.4645 7.86195 21.8467Z" stroke="black" stroke-width="4"/>
</svg>
