<svg width="16" height="18" viewBox="0 0 16 18" fill="none" xmlns="http://www.w3.org/2000/svg">
<path d="M15.75 3.29997C15.7192 2.36424 15.2291 1.50384 14.44 0.999966C13.3724 0.305289 12.0343 0.171108 10.85 0.639966L6.30002 2.40997C5.14461 2.81718 4.35287 3.88603 4.30002 5.10997V12.43C3.90012 12.2167 3.45325 12.1067 3.00003 12.11C1.87067 12.11 0.852705 12.7908 0.421459 13.8346C-0.00978757 14.8784 0.230752 16.0792 1.03076 16.8763C1.83077 17.6735 3.03243 17.9097 4.07466 17.4747C5.11688 17.0397 5.79407 16.0193 5.79003 14.89C5.7943 14.8367 5.7943 14.7832 5.79003 14.73V5.10997C5.84836 4.49685 6.2709 3.97953 6.86002 3.79997L11.4 1.99997C12.1264 1.71778 12.9439 1.79953 13.6 2.21997C13.9846 2.45246 14.2283 2.86109 14.25 3.30997V10.58C13.8516 10.3605 13.4049 10.2436 12.95 10.24C11.4252 10.231 10.1757 11.4478 10.1441 12.9722C10.1126 14.4967 11.3108 15.7641 12.8347 15.8182C14.3585 15.8722 15.6435 14.6929 15.72 13.17C15.7247 13.1234 15.7247 13.0765 15.72 13.03L15.75 3.29997Z" fill="black"/>
</svg>
