<svg width="30" height="30" viewBox="0 0 30 30" fill="none" xmlns="http://www.w3.org/2000/svg">
<path fill-rule="evenodd" clip-rule="evenodd" d="M26.4669 18.792L27.417 25.392C27.4856 25.9001 27.3311 26.4131 26.9932 26.7989C26.6554 27.1846 26.1672 27.4054 25.6544 27.4044H25.392L18.792 26.4545C17.8973 26.3311 17.0676 25.9185 16.4295 25.2794L4.25445 13.092C1.88587 10.6396 1.91975 6.74142 4.33058 4.33058C6.74142 1.91975 10.6396 1.88587 13.092 4.25445L25.292 16.4295C25.931 17.0676 26.3436 17.8973 26.4669 18.792ZM17.817 23.9544C18.1627 24.2865 18.5966 24.5121 19.067 24.6045L25.5795 25.4669L24.667 19.0045C24.5746 18.5341 24.349 18.1002 24.017 17.7545L11.8295 5.57945C11.0083 4.73642 9.88132 4.26092 8.70445 4.26092C7.52758 4.26092 6.40063 4.73642 5.57945 5.57945C4.75581 6.3983 4.29268 7.51178 4.29268 8.6732C4.29268 9.83462 4.75581 10.9481 5.57945 11.7669L17.817 23.9544Z" fill="black"/>
<path d="M9.29195 7.96695C8.92256 7.62275 8.34694 7.63291 7.98992 7.98992C7.63291 8.34694 7.62275 8.92256 7.96695 9.29195L13.2295 14.5545C13.5955 14.92 14.1884 14.92 14.5545 14.5545C14.92 14.1884 14.92 13.5955 14.5545 13.2295L9.29195 7.96695Z" fill="black"/>
</svg>
