<svg width="30" height="30" viewBox="0 0 30 30" fill="none" xmlns="http://www.w3.org/2000/svg">
<path fill-rule="evenodd" clip-rule="evenodd" d="M3.41168 9.85284C5.26138 5.39717 9.6135 2.49495 14.4378 2.50001C17.5994 2.5 20.6313 3.75678 22.8657 5.99352C25.1001 8.23025 26.3537 11.2635 26.3503 14.425C26.3503 19.2494 23.4436 23.5984 18.986 25.4435C14.5284 27.2885 9.39822 26.2659 5.98868 22.8528C2.57914 19.4397 1.56197 14.3085 3.41168 9.85284ZM23.7878 18.05C24.2243 16.8916 24.4446 15.6629 24.4378 14.425C24.4659 12.1484 23.7163 9.93032 22.3128 8.13751C21.7503 9.07501 20.6878 10.475 19.3753 10.475C18.8704 10.4344 18.3623 10.4852 17.8753 10.625V10.7625C17.8753 10.9875 18.4878 11.6 18.8128 11.925C19.6223 12.5286 20.1612 13.4268 20.3128 14.425C20.3128 16.425 20.5128 17.0375 20.6878 17.1875C21.7685 17.2648 22.8226 17.5581 23.7878 18.05ZM4.43784 14.425C4.42648 12.2013 5.15662 10.0373 6.51284 8.27501C6.86703 8.92098 7.55131 9.31613 8.28784 9.30001C9.29927 9.80998 10.1933 10.5252 10.9128 11.4C10.3834 11.7255 9.90351 12.1255 9.48784 12.5875C9.44926 12.6247 9.40725 12.6656 9.36274 12.7089C9.0179 13.0447 8.52319 13.5264 8.31284 13.5375C7.73413 13.52 7.17386 13.7422 6.76446 14.1516C6.35506 14.561 6.13285 15.1213 6.15034 15.7C6.15214 15.8433 6.18633 15.9843 6.25034 16.1125L7.37534 18.3625C7.3897 19.6566 7.59611 20.9415 7.98784 22.175C5.70756 20.2507 4.40571 17.4086 4.43784 14.425ZM11.0253 23.825C12.1193 24.222 13.2741 24.4251 14.4378 24.425V24.4625C17.8781 24.4856 21.0887 22.7387 22.9378 19.8375C22.1839 19.4724 21.3789 19.2238 20.5503 19.1C18.3878 19.1 18.3878 16 18.3878 14.5C18.3878 14.2735 17.8306 13.7171 17.4863 13.3734C17.4696 13.3567 17.4534 13.3406 17.4378 13.325C16.6341 12.7183 16.1001 11.8208 15.9503 10.825C15.9503 8.66251 18.1503 8.66251 19.3253 8.66251C19.6503 8.65001 20.4253 7.72501 20.9003 6.80001C17.1938 3.66234 11.7687 3.64125 8.03785 6.75001C8.05677 6.85751 8.05677 6.9675 8.03785 7.07501C8.05035 7.37501 8.18785 7.37501 8.32535 7.37501C9.82535 7.37501 13.1878 10.425 13.2378 11.85C13.2398 12.1714 13.1043 12.4782 12.8655 12.6932C12.6266 12.9082 12.3072 13.0107 11.9878 12.975C11.7628 12.9875 11.1503 13.6 10.8253 13.925C10.2173 14.7294 9.32126 15.267 8.32535 15.425C8.22535 15.425 8.07535 15.425 8.07535 15.55L9.16285 17.6375C9.22686 17.7657 9.26105 17.9067 9.26285 18.05C9.26285 19.4125 9.56285 21.625 10.2128 22.2875C10.6664 22.6804 10.9562 23.229 11.0253 23.825Z" fill="black"/>
</svg>
