<svg width="32" height="32" viewBox="0 0 32 32" fill="none" xmlns="http://www.w3.org/2000/svg">
<path d="M1 15.6153C1 9.81377 1 6.91223 2.758 5.11069C4.5145 3.30762 7.3435 3.30762 13 3.30762H19C24.6565 3.30762 27.4855 3.30762 29.242 5.11069C31 6.91223 31 9.81377 31 15.6153V18.6922C31 24.4938 31 27.3953 29.242 29.1968C27.4855 30.9999 24.6565 30.9999 19 30.9999H13C7.3435 30.9999 4.5145 30.9999 2.758 29.1968C1 27.3953 1 24.4938 1 18.6922V15.6153Z" stroke="black" stroke-width="1.5"/>
<path d="M8.5 3.30769V1M23.5 3.30769V1M1.75 11H30.25" stroke="black" stroke-width="1.5" stroke-linecap="round"/>
<path d="M25 23.3075C25 23.7156 24.842 24.1069 24.5607 24.3954C24.2794 24.6839 23.8978 24.846 23.5 24.846C23.1022 24.846 22.7206 24.6839 22.4393 24.3954C22.158 24.1069 22 23.7156 22 23.3075C22 22.8995 22.158 22.5082 22.4393 22.2197C22.7206 21.9312 23.1022 21.7691 23.5 21.7691C23.8978 21.7691 24.2794 21.9312 24.5607 22.2197C24.842 22.5082 25 22.8995 25 23.3075ZM25 17.1537C25 17.5617 24.842 17.953 24.5607 18.2416C24.2794 18.5301 23.8978 18.6922 23.5 18.6922C23.1022 18.6922 22.7206 18.5301 22.4393 18.2416C22.158 17.953 22 17.5617 22 17.1537C22 16.7457 22.158 16.3544 22.4393 16.0658C22.7206 15.7773 23.1022 15.6152 23.5 15.6152C23.8978 15.6152 24.2794 15.7773 24.5607 16.0658C24.842 16.3544 25 16.7457 25 17.1537ZM17.5 23.3075C17.5 23.7156 17.342 24.1069 17.0607 24.3954C16.7794 24.6839 16.3978 24.846 16 24.846C15.6022 24.846 15.2206 24.6839 14.9393 24.3954C14.658 24.1069 14.5 23.7156 14.5 23.3075C14.5 22.8995 14.658 22.5082 14.9393 22.2197C15.2206 21.9312 15.6022 21.7691 16 21.7691C16.3978 21.7691 16.7794 21.9312 17.0607 22.2197C17.342 22.5082 17.5 22.8995 17.5 23.3075ZM17.5 17.1537C17.5 17.5617 17.342 17.953 17.0607 18.2416C16.7794 18.5301 16.3978 18.6922 16 18.6922C15.6022 18.6922 15.2206 18.5301 14.9393 18.2416C14.658 17.953 14.5 17.5617 14.5 17.1537C14.5 16.7457 14.658 16.3544 14.9393 16.0658C15.2206 15.7773 15.6022 15.6152 16 15.6152C16.3978 15.6152 16.7794 15.7773 17.0607 16.0658C17.342 16.3544 17.5 16.7457 17.5 17.1537ZM10 23.3075C10 23.7156 9.84196 24.1069 9.56066 24.3954C9.27936 24.6839 8.89782 24.846 8.5 24.846C8.10218 24.846 7.72064 24.6839 7.43934 24.3954C7.15804 24.1069 7 23.7156 7 23.3075C7 22.8995 7.15804 22.5082 7.43934 22.2197C7.72064 21.9312 8.10218 21.7691 8.5 21.7691C8.89782 21.7691 9.27936 21.9312 9.56066 22.2197C9.84196 22.5082 10 22.8995 10 23.3075ZM10 17.1537C10 17.5617 9.84196 17.953 9.56066 18.2416C9.27936 18.5301 8.89782 18.6922 8.5 18.6922C8.10218 18.6922 7.72064 18.5301 7.43934 18.2416C7.15804 17.953 7 17.5617 7 17.1537C7 16.7457 7.15804 16.3544 7.43934 16.0658C7.72064 15.7773 8.10218 15.6152 8.5 15.6152C8.89782 15.6152 9.27936 15.7773 9.56066 16.0658C9.84196 16.3544 10 16.7457 10 17.1537Z" fill="black"/>
</svg>
