<svg width="30" height="30" viewBox="0 0 30 30" fill="none" xmlns="http://www.w3.org/2000/svg">
<path d="M24.7752 14.6875C24.7752 14.1697 24.3554 13.75 23.8377 13.75C23.3199 13.75 22.9002 14.1697 22.9002 14.6875C22.9369 16.8479 22.1129 18.9343 20.6099 20.4866C19.1068 22.0388 17.0481 22.9296 14.8877 22.9625C12.7272 22.9296 10.6685 22.0388 9.16542 20.4866C7.66237 18.9343 6.8384 16.8479 6.87516 14.6875C6.87516 14.1697 6.45542 13.75 5.93766 13.75C5.41989 13.75 5.00016 14.1697 5.00016 14.6875C4.97176 19.825 8.84097 24.1481 13.9502 24.6875V27.8125C13.9502 28.3303 14.3699 28.75 14.8877 28.75C15.4054 28.75 15.8252 28.3303 15.8252 27.8125V24.7875C20.9729 24.2446 24.8555 19.8631 24.7752 14.6875Z" fill="black"/>
<path fill-rule="evenodd" clip-rule="evenodd" d="M21.25 15C21.25 18.4518 18.4518 21.25 15 21.25C11.5482 21.25 8.75 18.4518 8.75 15V8.75C8.75 5.29822 11.5482 2.5 15 2.5C18.4518 2.5 21.25 5.29822 21.25 8.75V15ZM15 4.375C12.5838 4.375 10.625 6.33375 10.625 8.75V15C10.625 17.4162 12.5838 19.375 15 19.375C17.4162 19.375 19.375 17.4162 19.375 15V8.75C19.375 6.33375 17.4162 4.375 15 4.375Z" fill="black"/>
</svg>
