<svg width="30" height="30" viewBox="0 0 30 30" fill="none" xmlns="http://www.w3.org/2000/svg">
<path d="M7.82662 12.8492L14.6641 6.01167L21.5016 12.8492C21.8676 13.2147 22.4606 13.2147 22.8266 12.8492C23.1922 12.4832 23.1922 11.8902 22.8266 11.5242L15.3266 4.02418C14.9606 3.65861 14.3676 3.65861 14.0016 4.02418L6.50162 11.5242C6.15742 11.8936 6.16757 12.4692 6.52459 12.8262C6.8816 13.1832 7.45723 13.1934 7.82662 12.8492Z" fill="black"/>
<path d="M21.5016 17.1492L14.6641 23.9867L7.82662 17.1492C7.45723 16.805 6.8816 16.8151 6.52459 17.1721C6.16757 17.5292 6.15742 18.1048 6.50162 18.4742L14.0016 25.9742C14.3676 26.3397 14.9606 26.3397 15.3266 25.9742L22.8266 18.4742C23.1708 18.1048 23.1607 17.5292 22.8036 17.1721C22.4466 16.8151 21.871 16.805 21.5016 17.1492Z" fill="black"/>
</svg>
